<svg xmlns="http://www.w3.org/2000/svg" viewBox="0 0 459.66 148.23"><defs><style>.cls-1{fill:#fff;}.cls-2{fill:#f28c00;}</style></defs><title>Asset 2</title><g id="Layer_2" data-name="Layer 2"><g id="Layer_1-2" data-name="Layer 1"><path class="cls-1" d="M432.87,4.3a2.21,2.21,0,0,0,.71-.12,2.16,2.16,0,0,0,1.33-2.73A2.1,2.1,0,0,0,433.84.22a2.15,2.15,0,1,0-1,4.07Z"/><path class="cls-1" d="M432.41,27.18a3.28,3.28,0,0,0-4.33,1.5A3.21,3.21,0,0,0,431,33.32a3.3,3.3,0,0,0,2.94-1.81v0a3.21,3.21,0,0,0,.15-2.48A3.17,3.17,0,0,0,432.41,27.18Z"/><path class="cls-1" d="M437.37,17.05a2.63,2.63,0,0,0-.62-1.95,2.66,2.66,0,0,0-1.86-.94A2.69,2.69,0,0,0,432,16.63a2.66,2.66,0,0,0,2.47,2.89h.21a2.69,2.69,0,0,0,1.77-.66A2.65,2.65,0,0,0,437.37,17.05Z"/><path class="cls-1" d="M421.76,45.33A3.51,3.51,0,0,0,424,44.5h0a3.48,3.48,0,0,0,1.22-2.39,3.41,3.41,0,0,0-.82-2.5,3.51,3.51,0,0,0-4.9-.35,3.45,3.45,0,0,0-1.22,2.37,3.41,3.41,0,0,0,.82,2.51A3.47,3.47,0,0,0,421.76,45.33Z"/><path class="cls-1" d="M459.35,24.14a2.16,2.16,0,0,0-4,.62,2.16,2.16,0,0,0,4.2,1A2.11,2.11,0,0,0,459.35,24.14Z"/><path class="cls-1" d="M443.64,46.1A3.27,3.27,0,0,0,439.19,45a3.2,3.2,0,0,0-1.08,4.44,3.27,3.27,0,0,0,4.46,1.07h0a3.2,3.2,0,0,0,1.07-4.44Z"/><path class="cls-1" d="M452.74,36.47A2.7,2.7,0,0,0,449,37a2.65,2.65,0,0,0,.52,3.76,2.71,2.71,0,0,0,3.77-.51,2.66,2.66,0,0,0-.53-3.77Z"/><path class="cls-1" d="M426.29,49.34A3.46,3.46,0,0,0,424,50.69a3.41,3.41,0,0,0-.66,2.55,3.5,3.5,0,0,0,3.46,3,3.55,3.55,0,0,0,.48,0,3.46,3.46,0,0,0,2.31-1.35,3.41,3.41,0,0,0,.66-2.55A3.51,3.51,0,0,0,426.29,49.34Z"/><path class="cls-1" d="M391.73,112.75a2.16,2.16,0,0,0-2.31,3.24,2.12,2.12,0,0,0,1.33,1,2.19,2.19,0,0,0,.49.06,2.16,2.16,0,0,0,1.84-3.3A2.12,2.12,0,0,0,391.73,112.75Z"/><path class="cls-1" d="M387.53,84a3.29,3.29,0,0,0-3.89,2.43h0a3.21,3.21,0,0,0,3.13,3.95,3.28,3.28,0,0,0,3.18-2.51A3.2,3.2,0,0,0,387.53,84Z"/><path class="cls-1" d="M387.78,98.77a2.7,2.7,0,0,0-4.27,2.57,2.64,2.64,0,0,0,3,2.26,2.71,2.71,0,0,0,2.28-3.06A2.64,2.64,0,0,0,387.78,98.77Z"/><path class="cls-1" d="M395.18,70.84a3.51,3.51,0,0,0-4.86.76h0a3.45,3.45,0,0,0-.65,2.59,3.41,3.41,0,0,0,3.39,2.91,3.53,3.53,0,0,0,2.83-1.42,3.45,3.45,0,0,0,.65-2.59A3.41,3.41,0,0,0,395.18,70.84Z"/><path class="cls-1" d="M362.62,95.85A2.16,2.16,0,0,0,360.45,98a2.1,2.1,0,0,0,.6,1.5A2.16,2.16,0,0,0,364.77,98a2.12,2.12,0,0,0-.61-1.52A2.15,2.15,0,0,0,362.62,95.85Z"/><path class="cls-1" d="M371.47,70h0a3.2,3.2,0,0,0-1,2.29,3.16,3.16,0,0,0,.93,2.27,3.27,3.27,0,0,0,4.58,0,3.2,3.2,0,0,0,.05-4.57A3.28,3.28,0,0,0,371.47,70Z"/><path class="cls-1" d="M366.92,81.1a2.7,2.7,0,0,0-3.57,1.34,2.63,2.63,0,0,0-.07,2.05,2.66,2.66,0,0,0,1.43,1.5,2.7,2.7,0,0,0,3.56-1.35,2.66,2.66,0,0,0-1.35-3.54Z"/><path class="cls-1" d="M386.36,67.73a3.49,3.49,0,0,0,1.25-.23,3.45,3.45,0,0,0,1.94-1.83,3.41,3.41,0,0,0,.07-2.64,3.52,3.52,0,0,0-4.5-2h0a3.45,3.45,0,0,0,1.25,6.67Z"/><path class="cls-1" d="M378.17,4.18a2.16,2.16,0,0,0,2.74-1.33A2.17,2.17,0,0,0,379.56.12a2.14,2.14,0,0,0-1.66.1,2.11,2.11,0,0,0-1.08,1.22A2.17,2.17,0,0,0,378.17,4.18Z"/><path class="cls-1" d="M383.81,31.16a3.19,3.19,0,0,0-.16-2.47,3.28,3.28,0,0,0-4.33-1.5,3.21,3.21,0,0,0-1.49,4.32h0a3.29,3.29,0,0,0,2.94,1.81,3.23,3.23,0,0,0,3-2.17Z"/><path class="cls-1" d="M379.73,16.65a2.71,2.71,0,0,0-2.89-2.48,2.68,2.68,0,0,0-1.55,4.71,2.69,2.69,0,0,0,1.76.66h.21a2.66,2.66,0,0,0,2.48-2.88Z"/><path class="cls-1" d="M387.7,44.5a3.52,3.52,0,0,0,2.27.83,3.45,3.45,0,0,0,2.62-1.19,3.4,3.4,0,0,0,.82-2.5,3.45,3.45,0,0,0-1.22-2.38,3.51,3.51,0,0,0-4.9.35,3.41,3.41,0,0,0-.82,2.5,3.48,3.48,0,0,0,1.21,2.39Z"/><path class="cls-1" d="M353.73,23.16a2.15,2.15,0,0,0-1.35,1,2.11,2.11,0,0,0-.24,1.61,2.16,2.16,0,0,0,2.11,1.64,2.28,2.28,0,0,0,.5-.06,2.15,2.15,0,0,0,1.34-1,2.1,2.1,0,0,0,.24-1.59A2.16,2.16,0,0,0,353.73,23.16Z"/><path class="cls-1" d="M373.63,49.47A3.2,3.2,0,0,0,372.55,45a3.27,3.27,0,0,0-4.45,1.06,3.2,3.2,0,0,0,1.06,4.44,3.23,3.23,0,0,0,1.68.47A3.28,3.28,0,0,0,373.63,49.47Z"/><path class="cls-1" d="M362.22,40.76a2.66,2.66,0,0,0,.54-3.76,2.7,2.7,0,0,0-3.77-.54,2.66,2.66,0,0,0-.54,3.78,2.7,2.7,0,0,0,3.76.52Z"/><path class="cls-1" d="M385,56.21a3.5,3.5,0,0,0,3.46-3,3.45,3.45,0,0,0-3-3.9,3.51,3.51,0,0,0-3.95,2.94,3.41,3.41,0,0,0,.66,2.55,3.46,3.46,0,0,0,2.31,1.35A3.51,3.51,0,0,0,385,56.21Z"/><path class="cls-1" d="M421.63,113a2.15,2.15,0,1,0-.64,3.91,2.15,2.15,0,0,0,1.6-2.54A2.16,2.16,0,0,0,421.63,113Z"/><path class="cls-1" d="M421.8,87.91A3.27,3.27,0,0,0,425,90.43a3.21,3.21,0,0,0,.71-.08,3.2,3.2,0,0,0,2.43-3.87h0A3.27,3.27,0,0,0,424.21,84a3.2,3.2,0,0,0-2.41,3.87Z"/><path class="cls-1" d="M426,98.28a2.67,2.67,0,0,0-3.06,2.25,2.7,2.7,0,0,0,2.26,3.06,2.78,2.78,0,0,0,.44,0,2.66,2.66,0,0,0,2.63-2.29A2.7,2.7,0,0,0,426,98.28Z"/><path class="cls-1" d="M420.71,76.45a3.4,3.4,0,0,0,1.36-2.26,3.44,3.44,0,0,0-.65-2.58,3.51,3.51,0,0,0-4.86-.76,3.4,3.4,0,0,0-1.36,2.25,3.45,3.45,0,0,0,.65,2.59,3.53,3.53,0,0,0,2.83,1.42A3.45,3.45,0,0,0,420.71,76.45Z"/><path class="cls-1" d="M449.11,95.85a2.15,2.15,0,1,0,1.58,3.64,2.1,2.1,0,0,0,.6-1.5A2.16,2.16,0,0,0,449.11,95.85Z"/><path class="cls-1" d="M440.27,70a3.28,3.28,0,0,0-4.59,0,3.2,3.2,0,0,0,.05,4.57,3.26,3.26,0,0,0,2.27.91,3.23,3.23,0,0,0,2.3-1,3.2,3.2,0,0,0,0-4.57Z"/><path class="cls-1" d="M448.45,84.48a2.62,2.62,0,0,0-.07-2,2.69,2.69,0,1,0-4.92,2.19,2.71,2.71,0,0,0,5-.15Z"/><path class="cls-1" d="M426.63,61.05h0a3.51,3.51,0,0,0-4.5,2,3.4,3.4,0,0,0,.07,2.62,3.49,3.49,0,0,0,3.19,2.07,3.5,3.5,0,0,0,3.26-2.21,3.4,3.4,0,0,0-.07-2.62A3.48,3.48,0,0,0,426.63,61.05Z"/><path class="cls-1" d="M416.09,48.06a13,13,0,1,0-11.74,21.05,13.25,13.25,0,0,0,1.54.09,12.93,12.93,0,0,0,8.06-2.82A13.06,13.06,0,0,0,416.09,48.06Z"/><path class="cls-2" d="M18.2,109.24a10.46,10.46,0,0,0,3.09,3.4,13.2,13.2,0,0,0,4.34,2,20.46,20.46,0,0,0,5.1.63,19,19,0,0,0,4-.44,13.43,13.43,0,0,0,3.78-1.38,8.59,8.59,0,0,0,2.83-2.52,6.62,6.62,0,0,0,1.13-4q0-4-5.35-6a107.43,107.43,0,0,0-14.93-4q-3.91-.88-7.62-2.08a26,26,0,0,1-6.61-3.15,15.29,15.29,0,0,1-4.66-4.91,13.9,13.9,0,0,1-1.76-7.24A19.6,19.6,0,0,1,4,69.12a18.12,18.12,0,0,1,6.49-6.36,28.45,28.45,0,0,1,9.07-3.27,56,56,0,0,1,10.33-.94,51.63,51.63,0,0,1,10.27,1A27.2,27.2,0,0,1,49,63a20.42,20.42,0,0,1,6.49,6.36,21.41,21.41,0,0,1,3.09,10h-17q-.38-5.17-3.9-7a17.86,17.86,0,0,0-8.31-1.83,30.87,30.87,0,0,0-3.27.19,10.92,10.92,0,0,0-3.21.82,6.62,6.62,0,0,0-2.46,1.83,4.82,4.82,0,0,0-1,3.21,4.9,4.9,0,0,0,1.76,3.91,13.58,13.58,0,0,0,4.6,2.46,57.22,57.22,0,0,0,6.49,1.7q3.65.76,7.43,1.64a76.2,76.2,0,0,1,7.62,2.14,25.11,25.11,0,0,1,6.61,3.34,16.19,16.19,0,0,1,4.66,5.16,15.17,15.17,0,0,1,1.76,7.62A19.78,19.78,0,0,1,51,122.28,27.58,27.58,0,0,1,41.5,126a55.64,55.64,0,0,1-10.9,1.07,54,54,0,0,1-11.08-1.13,29.27,29.27,0,0,1-9.64-3.78,21.59,21.59,0,0,1-6.93-7,21.87,21.87,0,0,1-3-10.89H17A9.79,9.79,0,0,0,18.2,109.24Z"/><path class="cls-2" d="M82.75,60.31v8.31H83a19.67,19.67,0,0,1,8.31-7.68,25.52,25.52,0,0,1,11.08-2.39,28.22,28.22,0,0,1,13.23,2.9,27.36,27.36,0,0,1,9.2,7.68,32.52,32.52,0,0,1,5.42,11.15A49.56,49.56,0,0,1,132,93.56a44.78,44.78,0,0,1-1.76,12.6,32.1,32.1,0,0,1-5.35,10.71,26.52,26.52,0,0,1-8.94,7.43,26.92,26.92,0,0,1-12.53,2.77,25.35,25.35,0,0,1-11.15-2.46,21.07,21.07,0,0,1-8.38-7.24h-.25v30.86H65.75V60.31ZM106,111.95a14.33,14.33,0,0,0,4.79-4.6,19,19,0,0,0,2.58-6.61,39.07,39.07,0,0,0,.76-7.68,36.26,36.26,0,0,0-.82-7.68,20.51,20.51,0,0,0-2.71-6.74,15.12,15.12,0,0,0-4.85-4.79A13.56,13.56,0,0,0,98.5,72a13.8,13.8,0,0,0-7.37,1.83,14.71,14.71,0,0,0-4.79,4.72,19.6,19.6,0,0,0-2.58,6.68A39.71,39.71,0,0,0,83,93.05a36.07,36.07,0,0,0,.82,7.68,19.81,19.81,0,0,0,2.64,6.61,15.26,15.26,0,0,0,19.52,4.6Z"/><path class="cls-2" d="M138.17,50.23V35.49h17.89V50.23Zm17.89,10.08v65.12H138.17V60.31Z"/><path class="cls-2" d="M211.35,117.11a18.46,18.46,0,0,1-8.25,7.62,27.45,27.45,0,0,1-11.53,2.33,27.83,27.83,0,0,1-12.85-2.83,25.77,25.77,0,0,1-9.13-7.68,34.78,34.78,0,0,1-5.42-11.15,46.77,46.77,0,0,1-1.83-13.1,44,44,0,0,1,1.83-12.66,32.89,32.89,0,0,1,5.42-10.77,26.29,26.29,0,0,1,21.6-10.33,25.61,25.61,0,0,1,11,2.46,19.21,19.21,0,0,1,8.25,7.24h.25V35.49h17.89v89.93h-17v-8.31Zm-.76-32.18A19,19,0,0,0,208,78.38a14.55,14.55,0,0,0-4.72-4.6A13.86,13.86,0,0,0,196,72a14.54,14.54,0,0,0-7.43,1.76,14,14,0,0,0-4.85,4.66,20.59,20.59,0,0,0-2.65,6.61,35.8,35.8,0,0,0-.82,7.75,33.14,33.14,0,0,0,.88,7.56A20.59,20.59,0,0,0,184,107.1a15.71,15.71,0,0,0,4.91,4.79,13.28,13.28,0,0,0,7.12,1.83,14.17,14.17,0,0,0,7.37-1.76,13.4,13.4,0,0,0,4.72-4.72,21.18,21.18,0,0,0,2.52-6.74,39.71,39.71,0,0,0,.76-7.81A38.78,38.78,0,0,0,210.6,84.93Z"/><path class="cls-2" d="M256.19,109.81q4,3.9,11.59,3.9A15.93,15.93,0,0,0,277.1,111q3.9-2.71,4.79-5.73h15.74Q293.86,117,286,122t-18.89,5a37.18,37.18,0,0,1-13.86-2.46,28.79,28.79,0,0,1-10.46-7,31.43,31.43,0,0,1-6.61-10.83,39.66,39.66,0,0,1-2.33-13.86,38,38,0,0,1,2.39-13.6,31.49,31.49,0,0,1,17.32-18.14,33.72,33.72,0,0,1,13.54-2.64,31,31,0,0,1,14.49,3.21,28.93,28.93,0,0,1,10.14,8.63,35.53,35.53,0,0,1,5.73,12.34,46.08,46.08,0,0,1,1.26,14.48h-47Q252.16,105.9,256.19,109.81Zm20.22-34.26Q273.2,72,266.65,72a15.58,15.58,0,0,0-7.12,1.45A13.55,13.55,0,0,0,255,77.06a13.13,13.13,0,0,0-2.39,4.53,20.37,20.37,0,0,0-.82,4.28h29.1Q279.62,79.07,276.41,75.55Z"/><path class="cls-2" d="M297,60.31h20.4l11.46,17,11.34-17H360L338.57,90.79l24.06,34.64h-20.4l-13.6-20.53L315,125.43H295l23.43-34.26Z"/><path class="cls-1" d="M95.56,147.42a.61.61,0,0,1-.61.47.54.54,0,0,1-.6-.53,2.65,2.65,0,0,1,.17-.62l3.14-8.38c.16-.44.41-.77.9-.77s.74.33.9.77l3.14,8.38a2.64,2.64,0,0,1,.17.63.54.54,0,0,1-.6.53.62.62,0,0,1-.61-.47l-.65-1.82H96.21Zm3-8.38h0l-1.95,5.48h3.93Z"/><path class="cls-1" d="M106.33,138.36a.62.62,0,0,1,.67-.68h2.46c3,0,4.5,2.33,4.5,5,0,3-1.61,5.12-4.32,5.12H107a.62.62,0,0,1-.67-.68Zm1.25,8.36h1.79c2.36,0,3.24-2,3.24-4s-.94-3.92-3.33-3.92h-1.71Z"/><path class="cls-1" d="M123.45,138.41c.16-.44.27-.81.77-.81a.53.53,0,0,1,.55.51,1.44,1.44,0,0,1-.09.48l-3.09,8.62c-.14.41-.3.68-.73.68s-.58-.27-.73-.68l-3.09-8.62a1.44,1.44,0,0,1-.09-.48.53.53,0,0,1,.56-.51c.5,0,.61.37.77.81l2.56,7.38h0Z"/><path class="cls-1" d="M127.92,147.42a.61.61,0,0,1-.61.47.54.54,0,0,1-.6-.53,2.65,2.65,0,0,1,.17-.62l3.14-8.38c.16-.44.41-.77.9-.77s.74.33.9.77l3.14,8.38a2.66,2.66,0,0,1,.17.63.54.54,0,0,1-.6.53.61.61,0,0,1-.61-.47l-.65-1.82h-4.69Zm3-8.38h0L129,144.52h3.93Z"/><path class="cls-1" d="M139.88,147.23a.63.63,0,1,1-1.25,0v-8.89c0-.5.17-.74.57-.74s.54.16.88.65l5.12,7.35h0v-7.34a.63.63,0,1,1,1.25,0v8.89c0,.5-.17.74-.57.74s-.54-.16-.88-.65l-5.12-7.35h0Z"/><path class="cls-1" d="M154.71,146.81c1.52,0,2.19-.91,2.72-.91.3,0,.5.23.5.59,0,.64-1.44,1.41-3.21,1.41-2.93,0-4.44-2.52-4.44-5.15s1.51-5.15,4.51-5.15c1.79,0,2.93,1,2.93,1.48a.54.54,0,0,1-.51.6c-.57,0-.85-1-2.42-1-2.25,0-3.17,2.13-3.17,4.07S152.56,146.81,154.71,146.81Z"/><path class="cls-1" d="M162.86,146.64h3a.58.58,0,1,1,0,1.17h-3.6a.62.62,0,0,1-.67-.68v-8.76a.62.62,0,0,1,.67-.68h3.6a.58.58,0,1,1,0,1.17h-3v3.31h2.75a.58.58,0,1,1,0,1.17h-2.75Z"/><path class="cls-1" d="M170.52,138.36a.62.62,0,0,1,.67-.68h2.46c3,0,4.5,2.33,4.5,5,0,3-1.61,5.12-4.32,5.12h-2.63a.62.62,0,0,1-.67-.68Zm1.25,8.36h1.79c2.36,0,3.24-2,3.24-4s-.94-3.92-3.33-3.92h-1.71Z"/><path class="cls-1" d="M193.07,138.78a.54.54,0,0,1-.54.56c-.56,0-.74-.65-2-.65a1.47,1.47,0,0,0-1.61,1.44c0,2.23,4.81,1.17,4.81,4.58a3.19,3.19,0,0,1-3.43,3.2c-1.34,0-2.82-.51-2.82-1.22,0-.34.17-.64.53-.64s1,.78,2.3.78a2,2,0,0,0,2.08-2.06c0-2.41-4.81-1.24-4.81-4.55a2.84,2.84,0,0,1,3-2.6C191.83,137.6,193.07,138.12,193.07,138.78Z"/><path class="cls-1" d="M201.44,137.6c2.89,0,4.44,2.52,4.44,5.15s-1.55,5.15-4.44,5.15-4.44-2.52-4.44-5.15S198.55,137.6,201.44,137.6Zm0,9.22c2.28,0,3.1-2.13,3.1-4.07s-.83-4.07-3.1-4.07-3.1,2.13-3.1,4.07S199.17,146.81,201.44,146.81Z"/><path class="cls-1" d="M210.92,147.23a.63.63,0,1,1-1.25,0v-8.86a.62.62,0,0,1,.67-.68h3.56a.58.58,0,1,1,0,1.17h-3v3.31h2.63a.58.58,0,1,1,0,1.17h-2.63Z"/><path class="cls-1" d="M219.69,138.85H217.8a.58.58,0,1,1,0-1.17h5a.58.58,0,1,1,0,1.17h-1.89v8.38a.63.63,0,1,1-1.25,0Z"/><path class="cls-1" d="M231.29,138.09a.66.66,0,0,1,1.28,0l2.33,8.18h0l1.33-8.09a.62.62,0,0,1,.68-.58.55.55,0,0,1,.57.57,3.33,3.33,0,0,1-.07.64l-1.54,8.26c-.09.44-.27.83-.9.83s-.78-.13-1-.83l-2.08-7.42h0l-2.08,7.42c-.2.7-.5.83-1,.83s-.81-.38-.89-.83l-1.54-8.26a3.24,3.24,0,0,1-.07-.64.54.54,0,0,1,.57-.57.62.62,0,0,1,.68.58l1.32,8.09h0Z"/><path class="cls-1" d="M241.21,147.42a.61.61,0,0,1-.61.47.54.54,0,0,1-.6-.53,2.68,2.68,0,0,1,.17-.62l3.14-8.38c.16-.44.41-.77.9-.77s.74.33.9.77l3.14,8.38a2.63,2.63,0,0,1,.17.63.54.54,0,0,1-.6.53.61.61,0,0,1-.61-.47l-.65-1.82h-4.7Zm3-8.38h0l-1.95,5.48h3.93Z"/><path class="cls-1" d="M253.17,147.23a.63.63,0,1,1-1.25,0v-8.86a.62.62,0,0,1,.67-.68h2.32a2.91,2.91,0,0,1,3.1,2.73,2.6,2.6,0,0,1-2.76,2.87h-.54l3.23,3.54a.77.77,0,0,1,.24.57.53.53,0,0,1-.57.48.74.74,0,0,1-.57-.28l-3.87-4.24Zm0-4.87h1.71c1.31,0,1.88-.55,1.88-1.86a1.77,1.77,0,0,0-1.91-1.74h-1.68Z"/><path class="cls-1" d="M263.08,146.64h3a.58.58,0,1,1,0,1.17h-3.6a.62.62,0,0,1-.67-.68v-8.76a.62.62,0,0,1,.67-.68h3.6a.58.58,0,1,1,0,1.17h-3v3.31h2.75a.58.58,0,1,1,0,1.17h-2.75Z"/><path class="cls-1" d="M281.8,138.78a.54.54,0,0,1-.54.56c-.55,0-.74-.65-2-.65a1.47,1.47,0,0,0-1.61,1.44c0,2.23,4.81,1.17,4.81,4.58a3.18,3.18,0,0,1-3.43,3.2c-1.34,0-2.82-.51-2.82-1.22,0-.34.17-.64.53-.64s1,.78,2.3.78a2,2,0,0,0,2.08-2.06c0-2.41-4.81-1.24-4.81-4.55a2.84,2.84,0,0,1,3-2.6C280.56,137.6,281.8,138.12,281.8,138.78Z"/><path class="cls-1" d="M290.17,137.6c2.89,0,4.44,2.52,4.44,5.15s-1.55,5.15-4.44,5.15-4.44-2.52-4.44-5.15S287.28,137.6,290.17,137.6Zm0,9.22c2.28,0,3.1-2.13,3.1-4.07s-.83-4.07-3.1-4.07-3.1,2.13-3.1,4.07S287.89,146.81,290.17,146.81Z"/><path class="cls-1" d="M299.65,146.64h2.67a.58.58,0,1,1,0,1.17h-3.26a.61.61,0,0,1-.67-.68v-8.86a.63.63,0,1,1,1.25,0Z"/><path class="cls-1" d="M306.46,138.26a.63.63,0,1,1,1.25,0v6a2.68,2.68,0,0,0,5.35,0v-6a.63.63,0,1,1,1.25,0v5.53c0,3.41-2.19,4.1-3.92,4.1s-3.93-.68-3.93-4.1Z"/><path class="cls-1" d="M320.19,138.85H318.3a.58.58,0,1,1,0-1.17h5a.58.58,0,1,1,0,1.17h-1.89v8.38a.63.63,0,1,1-1.25,0Z"/><path class="cls-1" d="M328.57,147.23a.63.63,0,1,1-1.25,0v-9a.63.63,0,1,1,1.25,0Z"/><path class="cls-1" d="M336.81,137.6c2.89,0,4.44,2.52,4.44,5.15s-1.55,5.15-4.44,5.15-4.44-2.52-4.44-5.15S333.92,137.6,336.81,137.6Zm0,9.22c2.28,0,3.1-2.13,3.1-4.07s-.83-4.07-3.1-4.07-3.1,2.13-3.1,4.07S334.53,146.81,336.81,146.81Z"/><path class="cls-1" d="M346.29,147.23a.63.63,0,1,1-1.25,0v-8.89c0-.5.17-.74.57-.74s.54.16.88.65l5.12,7.35h0v-7.34a.63.63,0,1,1,1.25,0v8.89c0,.5-.17.74-.57.74s-.54-.16-.88-.65l-5.12-7.35h0Z"/><path class="cls-1" d="M362.11,138.78a.54.54,0,0,1-.54.56c-.55,0-.74-.65-2-.65a1.47,1.47,0,0,0-1.61,1.44c0,2.23,4.81,1.17,4.81,4.58a3.19,3.19,0,0,1-3.43,3.2c-1.34,0-2.82-.51-2.82-1.22,0-.34.17-.64.53-.64s1,.78,2.3.78a2,2,0,0,0,2.08-2.06c0-2.41-4.81-1.24-4.81-4.55a2.84,2.84,0,0,1,3-2.6C360.87,137.6,362.11,138.12,362.11,138.78Z"/></g></g></svg>