<svg xmlns="http://www.w3.org/2000/svg" width="18" height="21" viewBox="0 0 18 21">
  <defs>
    <style>
      .cls-1 {
        fill: #f68f1e;
        fill-rule: evenodd;
      }
    </style>
  </defs>
  <path id="calendar.svg" class="cls-1" d="M15571.9,367.9v-1.13a1.9,1.9,0,0,0-3.8,0v1.13h-1.2v-1.13a1.9,1.9,0,0,0-3.8,0v1.13h-1.2v-1.13a1.9,1.9,0,0,0-3.8,0v1.13h-2.1V386h18V367.9h-2.1Zm-14.4,10.676h3.2v2.781h-3.2v-2.781Zm15-.5h-3.2v-3.031h3.2v3.031Zm-3.7,0h-3.6v-3.031h3.6v3.031Zm-4.1,0h-3.5v-3.031h3.5v3.031Zm-4,0h-3.2v-3.031h3.2v3.031Zm0.5,0.5h3.5v2.781h-3.5v-2.781Zm3.5,3.283V384.5h-3.5v-2.634h3.5Zm0.5,0h3.6V384.5h-3.6v-2.634Zm0-.5v-2.781h3.6v2.781h-3.6Zm4.1-2.781h3.2v2.781h-3.2v-2.781Zm3.2-6.654v2.617h-3.2v-2.617h3.2Zm-3.4-5.152a0.911,0.911,0,0,1,1.8,0V369.8a0.911,0.911,0,0,1-1.8,0v-3.023Zm-0.3,5.152v2.617h-3.6v-2.617h3.6Zm-4.7-5.152a0.911,0.911,0,0,1,1.8,0V369.8a0.911,0.911,0,0,1-1.8,0v-3.023Zm0.6,5.152v2.617h-3.5v-2.617h3.5Zm-5.6-5.152a0.911,0.911,0,0,1,1.8,0V369.8a0.911,0.911,0,0,1-1.8,0v-3.023Zm1.6,5.152v2.617h-3.2v-2.617h3.2Zm-3.2,9.937h3.2V384.5h-3.2v-2.634Zm11.8,2.634v-2.634h3.2V384.5h-3.2Z" transform="translate(-15556 -365)"/>
</svg>
