<svg xmlns="http://www.w3.org/2000/svg" width="19" height="19" viewBox="0 0 19 19">
  <defs>
    <style>
      .cls-1 {
        fill: #f28c00;
        fill-rule: evenodd;
      }
    </style>
  </defs>
  <path id="clock.svg" class="cls-1" d="M16783.5,442a9.5,9.5,0,1,1,9.5-9.5A9.53,9.53,0,0,1,16783.5,442Zm0-16.625a7.125,7.125,0,1,0,7.1,7.125A7.13,7.13,0,0,0,16783.5,425.375Zm4.2,10.673a0.688,0.688,0,0,1-.3.177c0,0.006,0,.009-0.1.009a1.327,1.327,0,0,1-.2-0.066l-4.4-2.933c0-.019,0-0.044-0.1-0.074a2.724,2.724,0,0,1-.1-0.28v-5.159a2.84,2.84,0,0,1,.1-0.281,0.517,0.517,0,0,1,.3-0.116h1.1a0.175,0.175,0,0,1,.2.116,0.416,0.416,0,0,1,.2.281v4.369l3.7,2.538a0.383,0.383,0,0,1,.1.538Z" transform="translate(-16774 -423)"/>
</svg>
