<svg xmlns="http://www.w3.org/2000/svg" width="28" height="19" viewBox="0 0 28 19">
  <defs>
    <style>
      .cls-1 {
        fill: #f28c00;
        fill-rule: evenodd;
      }
    </style>
  </defs>
  <path id="letter.svg" class="cls-1" d="M20407.9,534.852l-9.1-8.816,9.1-7.861a0.909,0.909,0,0,1,.1.511v15.628A1,1,0,0,1,20407.9,534.852Zm-11.5-8.888-2.4,1.968-2.4-1.962-1.2-1-9.2-7.9a1.885,1.885,0,0,1,.5-0.077h24.6a1.925,1.925,0,0,1,.5.076l-9.2,7.893Zm-16.3,8.888a1,1,0,0,1-.1-0.538V518.686a0.909,0.909,0,0,1,.1-0.511l9.1,7.865Zm13.9-4.906,3.6-2.914,9.2,8.9a2.1,2.1,0,0,1-.5.07h-24.6a2.1,2.1,0,0,1-.5-0.07l9.2-8.894Z" transform="translate(-20380 -517)"/>
</svg>
