<svg xmlns="http://www.w3.org/2000/svg" width="17" height="17.969" viewBox="0 0 17 17.969">
  <defs>
    <style>
      .cls-1 {
        fill: #f28c00;
        fill-rule: evenodd;
      }
    </style>
  </defs>
  <path id="map-marker.svg" class="cls-1" d="M16587,476.846c0,0.216-.1.433-0.1,0.648a3.214,3.214,0,0,1-1.4,1.937,12.385,12.385,0,0,1-6.1,1.548,16.406,16.406,0,0,1-6.9-1.06,4.192,4.192,0,0,1-2.3-2.234c-0.1-.308-0.1-0.644-0.2-0.964a2.027,2.027,0,0,1,.1-0.775,3.29,3.29,0,0,1,1.2-1.238,10.4,10.4,0,0,1,3.7-1.234,5.146,5.146,0,0,0,.5,1.135,5.441,5.441,0,0,0-2.2.936,1.278,1.278,0,0,0-.6.614c0,0.064-.1.131-0.1,0.2a0.7,0.7,0,0,0,.2.421,3.5,3.5,0,0,0,1.5.929,8.435,8.435,0,0,0,1.9.513,14.346,14.346,0,0,0,4,.108,7.769,7.769,0,0,0,3.6-1.108,4.233,4.233,0,0,0,.6-0.594,0.613,0.613,0,0,0-.3-0.629,2.833,2.833,0,0,0-1.2-.876,6.276,6.276,0,0,0-1.4-.48c0.2-.365.3-0.746,0.5-1.134a10.47,10.47,0,0,1,1.4.331,6.6,6.6,0,0,1,3.2,1.739A1.506,1.506,0,0,1,16587,476.846Zm-0.4-1.267C16586.3,475.186,16586.9,475.988,16586.6,475.579Zm-12.1-8.658a3.893,3.893,0,0,1,3.9-3.916h0.1l0.1,0a3.9,3.9,0,0,1,3.9,3.916c0,2.133-4,10.457-4,10.457S16574.5,469.062,16574.5,466.921Zm5.8-.345a1.8,1.8,0,1,0-1.8,1.794A1.793,1.793,0,0,0,16580.3,466.576Z" transform="translate(-16570 -463)"/>
</svg>
