<svg xmlns="http://www.w3.org/2000/svg" width="28" height="23" viewBox="0 0 28 23">
  <defs>
    <style>
      .cls-1 {
        fill: #f28c00;
        fill-rule: evenodd;
      }
    </style>
  </defs>
  <path id="phone.svg" class="cls-1" d="M20408,575.509a0.347,0.347,0,0,1-.5.371l-6-1.845a0.839,0.839,0,0,1-.5-0.768v-1.905a1.733,1.733,0,0,0-.4-0.976s-1.4-1.446-6.6-1.446-6.6,1.444-6.6,1.444a1.745,1.745,0,0,0-.4.978V573.6a0.8,0.8,0,0,1-.5.747l-6,1.559a0.361,0.361,0,0,1-.5-0.393v-5.191a3.337,3.337,0,0,1,.3-1.022s3.3-4.294,13.7-4.294,13.7,4.294,13.7,4.294a3.337,3.337,0,0,1,.3,1.022v5.191Zm-25.4,5.1,4.9-4.661a3.783,3.783,0,0,1,1.1-.63l0.7-3.327a1.627,1.627,0,0,1,1.5-1.148h6.4a1.627,1.627,0,0,1,1.5,1.148l0.7,3.343a2.44,2.44,0,0,1,1,.614l4.9,4.661a3.028,3.028,0,0,1,.9,1.98l0.3,4.232a1.145,1.145,0,0,1-1.1,1.174h-22.8a1.084,1.084,0,0,1-1.1-1.174l0.2-4.232A4.486,4.486,0,0,1,20382.6,580.612ZM20394,586a5.732,5.732,0,0,0,0-11.461A5.731,5.731,0,0,0,20394,586Zm0-9.5a3.771,3.771,0,0,1,0,7.54A3.771,3.771,0,0,1,20394,576.5Z" transform="translate(-20380 -565)"/>
</svg>
