<svg xmlns="http://www.w3.org/2000/svg" width="16" height="20" viewBox="0 0 16 20">
  <defs>
    <style>
      .cls-1 {
        fill: #f28c00;
        fill-rule: evenodd;
      }
    </style>
  </defs>
  <path id="tag.svg" class="cls-1" d="M17063.8,438.5a0.438,0.438,0,0,1-.3.146,0.5,0.5,0,0,1-.4-0.146l-8.3-8.1a1.408,1.408,0,0,1-.4-0.849l-0.4-4.392a1.293,1.293,0,0,1,.3-0.847l1-1a1.5,1.5,0,0,1,.8-0.311,0.3,0.3,0,0,1,.1,0l4.5,0.4a1.691,1.691,0,0,1,.9.4l8.2,8.1a0.489,0.489,0,0,1,0,.7Zm-6.3-13.606a1.29,1.29,0,0,0-.8-0.317,1.1,1.1,0,0,0-.8.317,1.123,1.123,0,0,0,0,1.528,1.1,1.1,0,0,0,.8.316,1.288,1.288,0,0,0,.8-0.316A1.123,1.123,0,0,0,17057.5,424.892Zm6,15.055a2.13,2.13,0,0,0,1.3-.526l4.1-4.074,0.9,0.9a0.488,0.488,0,0,1,0,.7l-6,5.895a0.5,0.5,0,0,1-.7,0l-8.3-8.1a1.406,1.406,0,0,1-.4-0.848l-0.2-2.251,7.9,7.774A2.181,2.181,0,0,0,17063.5,439.947Z" transform="translate(-17054 -423)"/>
</svg>
