<svg xmlns="http://www.w3.org/2000/svg" width="24" height="24" viewBox="0 0 24 24">
  <defs>
    <style>
      .cls-1 {
        fill: #fff;
        fill-rule: evenodd;
      }
    </style>
  </defs>
  <path id="tick.svg" class="cls-1" d="M21035,1008a12,12,0,1,0,12,12A12.016,12.016,0,0,0,21035,1008Zm7.7,8.84-8.5,8.44a1.54,1.54,0,0,1-1,.45h-0.8a1.54,1.54,0,0,1-1-.45l-4-3.98a0.735,0.735,0,0,1,0-.89l1.6-1.56a0.65,0.65,0,0,1,.9,0l2.5,2.53a0.65,0.65,0,0,0,.9,0l6.9-6.96a0.641,0.641,0,0,1,.9-0.01l1.6,1.55A0.72,0.72,0,0,1,21042.7,1016.84Z" transform="translate(-21023 -1008)"/>
</svg>
